<svg width="24" height="36" viewBox="0 0 24 36" fill="none" xmlns="http://www.w3.org/2000/svg">
<path d="M2 0.504997C1.66848 0.504997 1.35054 0.636693 1.11612 0.871114C0.881696 1.10553 0.75 1.42348 0.75 1.755V19.25C0.75 20.5761 1.27678 21.8478 2.21447 22.7855C3.15215 23.7232 4.42392 24.25 5.75 24.25H7V30.5C7 31.1563 7.12926 31.8061 7.38041 32.4125C7.63156 33.0188 7.99967 33.5697 8.46373 34.0338C8.92779 34.4978 9.47872 34.8659 10.085 35.1171C10.6914 35.3682 11.3412 35.4975 11.9975 35.4975C12.6538 35.4975 13.3036 35.3682 13.91 35.1171C14.5163 34.8659 15.0672 34.4978 15.5313 34.0338C15.9953 33.5697 16.3634 33.0188 16.6146 32.4125C16.8657 31.8061 16.995 31.1563 16.995 30.5V24.25H18.25C19.5761 24.25 20.8479 23.7232 21.7855 22.7855C22.7232 21.8478 23.25 20.5761 23.25 19.25V1.755C23.25 1.42348 23.1183 1.10553 22.8839 0.871114C22.6495 0.636693 22.3315 0.504997 22 0.504997H2ZM20.75 15.5H3.25V3.005H10.75V6.76C10.75 7.09152 10.8817 7.40946 11.1161 7.64388C11.3505 7.8783 11.6685 8.01 12 8.01C12.3315 8.01 12.6495 7.8783 12.8839 7.64388C13.1183 7.40946 13.25 7.09152 13.25 6.76V3.005H15.75V9.245C15.75 9.57652 15.8817 9.89446 16.1161 10.1289C16.3505 10.3633 16.6685 10.495 17 10.495C17.3315 10.495 17.6495 10.3633 17.8839 10.1289C18.1183 9.89446 18.25 9.57652 18.25 9.245V3.005H20.75V15.5ZM3.25 19.25V18H20.75V19.25C20.75 19.913 20.4866 20.5489 20.0178 21.0178C19.5489 21.4866 18.913 21.75 18.25 21.75H15.745C15.4135 21.75 15.0955 21.8817 14.8611 22.1161C14.6267 22.3505 14.495 22.6685 14.495 23V30.5C14.495 31.1624 14.2319 31.7976 13.7635 32.266C13.2951 32.7344 12.6599 32.9975 11.9975 32.9975C11.3351 32.9975 10.6999 32.7344 10.2315 32.266C9.76313 31.7976 9.5 31.1624 9.5 30.5V23C9.5 22.6685 9.3683 22.3505 9.13388 22.1161C8.89946 21.8817 8.58152 21.75 8.25 21.75H5.75C5.08696 21.75 4.45107 21.4866 3.98223 21.0178C3.51339 20.5489 3.25 19.913 3.25 19.25Z" fill="#2FD887"/>
</svg>
