<svg width="34" height="26" viewBox="0 0 34 26" fill="none" xmlns="http://www.w3.org/2000/svg">
<path d="M21.5075 0.607493C21.6576 0.674124 21.793 0.76966 21.9062 0.888647C22.0193 1.00763 22.1078 1.14774 22.1668 1.30096C22.2258 1.45418 22.254 1.61752 22.2498 1.78164C22.2457 1.94577 22.2092 2.10746 22.1425 2.25749L12.1425 24.7575C12.0079 25.0605 11.7585 25.2976 11.449 25.4167C11.1396 25.5358 10.7955 25.5271 10.4925 25.3925C10.1895 25.2579 9.95239 25.0084 9.8333 24.699C9.71422 24.3896 9.72293 24.0455 9.85753 23.7425L19.8575 1.24249C19.9242 1.09245 20.0197 0.956993 20.1387 0.843872C20.2577 0.730751 20.3978 0.642178 20.551 0.583211C20.7042 0.524244 20.8676 0.496038 21.0317 0.500204C21.1958 0.504371 21.3575 0.540828 21.5075 0.607493ZM7.83253 6.43999C7.95499 6.54931 8.05472 6.68169 8.12603 6.82955C8.19733 6.97742 8.23881 7.13788 8.24809 7.30178C8.25738 7.46568 8.23429 7.6298 8.18015 7.78477C8.126 7.93975 8.04186 8.08254 7.93253 8.20499L3.67503 13L7.93753 17.795C8.04653 17.9178 8.13027 18.0608 8.18399 18.216C8.2377 18.3711 8.26032 18.5353 8.25058 18.6992C8.24082 18.8631 8.19889 19.0235 8.12716 19.1712C8.05543 19.3189 7.95532 19.451 7.83253 19.56C7.70975 19.669 7.56669 19.7527 7.41154 19.8064C7.25639 19.8602 7.09218 19.8828 6.92829 19.873C6.76439 19.8633 6.60402 19.8214 6.45633 19.7496C6.30864 19.6779 6.17653 19.5778 6.06753 19.455L1.06753 13.83C0.864392 13.6012 0.752197 13.3059 0.752197 13C0.752197 12.6941 0.864392 12.3988 1.06753 12.17L6.06753 6.54499C6.17651 6.42218 6.30862 6.32204 6.45631 6.25029C6.604 6.17854 6.76437 6.1366 6.92828 6.12685C7.09218 6.1171 7.2564 6.13973 7.41156 6.19346C7.56671 6.24719 7.70976 6.33097 7.83253 6.43999ZM26.17 6.43999C26.2928 6.33097 26.4359 6.24719 26.591 6.19346C26.7462 6.13973 26.9104 6.1171 27.0743 6.12685C27.2382 6.1366 27.3986 6.17854 27.5463 6.25029C27.6939 6.32204 27.8261 6.42218 27.935 6.54499L32.935 12.17C33.1382 12.3988 33.2504 12.6941 33.2504 13C33.2504 13.3059 33.1382 13.6012 32.935 13.83L27.935 19.455C27.826 19.5778 27.6939 19.6779 27.5462 19.7496C27.3985 19.8214 27.2382 19.8633 27.0743 19.873C26.9104 19.8828 26.7462 19.8602 26.591 19.8064C26.4359 19.7527 26.2928 19.669 26.17 19.56C26.0472 19.451 25.9471 19.3189 25.8754 19.1712C25.8037 19.0235 25.7617 18.8631 25.752 18.6992C25.7422 18.5353 25.7649 18.3711 25.8186 18.216C25.8723 18.0608 25.956 17.9178 26.065 17.795L30.3275 13L26.065 8.20499C25.956 8.08222 25.8722 7.93917 25.8185 7.78402C25.7648 7.62886 25.7421 7.46465 25.7519 7.30074C25.7616 7.13684 25.8036 6.97646 25.8753 6.82877C25.9471 6.68108 26.0472 6.54897 26.17 6.43999Z" fill="#FF7E35"/>
</svg>
